<svg id="visual" viewBox="0 0 540 100" width="540" height="100" xmlns="http://www.w3.org/2000/svg" xmlns:xlink="http://www.w3.org/1999/xlink" version="1.1"><rect x="0" y="0" width="540" height="100" fill="#ffffff"></rect><path d="M0 62L12.8 57.5C25.7 53 51.3 44 77 38.8C102.7 33.7 128.3 32.3 154 35.7C179.7 39 205.3 47 231.2 50C257 53 283 51 308.8 48.7C334.7 46.3 360.3 43.7 386 45.2C411.7 46.7 437.3 52.3 463 52.2C488.7 52 514.3 46 527.2 43L540 40L540 101L527.2 101C514.3 101 488.7 101 463 101C437.3 101 411.7 101 386 101C360.3 101 334.7 101 308.8 101C283 101 257 101 231.2 101C205.3 101 179.7 101 154 101C128.3 101 102.7 101 77 101C51.3 101 25.7 101 12.8 101L0 101Z" fill="#009473" stroke-linecap="round" stroke-linejoin="miter"></path></svg>